<svg width="93" height="26" viewBox="0 0 93 26" fill="none" xmlns="http://www.w3.org/2000/svg">
<line y1="12.4746" x2="64" y2="12.4746" stroke="#E9AD77"/>
<path d="M80.4971 0.0522987C79.5593 0.149927 78.759 0.539064 78.0784 1.18258C77.3977 1.82473 76.9467 2.59063 76.8023 3.52703C76.7721 3.72779 76.7226 3.92855 76.6648 4.1238C76.6071 4.32043 76.4655 4.44006 76.2619 4.47856C76.2152 4.48819 76.1698 4.49781 76.1231 4.50331C75.8893 4.52807 75.6528 4.54044 75.4204 4.57619C74.8732 4.66282 74.3754 4.87733 73.9244 5.19909C73.2877 5.65285 72.8161 6.23724 72.5521 6.97564C72.4448 7.2754 72.3554 7.58479 72.2894 7.89555C72.1519 8.53494 72.0928 9.17983 72.2028 9.83298C72.2303 9.99249 72.2482 10.1547 72.2537 10.317C72.2578 10.4504 72.1946 10.5081 72.0612 10.5109C71.9567 10.5136 71.8508 10.5081 71.7477 10.493C71.1715 10.4146 70.6284 10.493 70.1403 10.8299C69.6315 11.1819 69.2575 11.6329 69.1241 12.2517C69.0746 12.4813 69.0388 12.7151 69.0017 12.9488C68.999 12.9626 69.0003 12.975 69.0003 12.9873C69.0003 12.9997 68.999 13.0121 69.0017 13.0231C69.0402 13.2555 69.0746 13.4892 69.1241 13.7202C69.2575 14.339 69.6315 14.79 70.1403 15.142C70.6284 15.4803 71.1715 15.5573 71.7477 15.4789C71.8508 15.4652 71.9567 15.4597 72.0612 15.461C72.1959 15.4638 72.2578 15.5215 72.2537 15.6549C72.2482 15.8172 72.2303 15.9794 72.2028 16.1389C72.0914 16.7907 72.1519 17.437 72.2894 18.0764C72.3568 18.3885 72.4448 18.6965 72.5521 18.9963C72.8161 19.7347 73.2877 20.3191 73.9244 20.7728C74.3754 21.0946 74.8732 21.3091 75.4204 21.3957C75.6528 21.4328 75.8893 21.4438 76.1231 21.4686C76.1698 21.4741 76.2166 21.4837 76.2619 21.4933C76.4655 21.5332 76.6071 21.6528 76.6648 21.8481C76.7226 22.0434 76.7707 22.2427 76.8023 22.4449C76.9453 23.3813 77.3977 24.1472 78.0784 24.7893C78.7604 25.4356 79.5607 25.8247 80.4971 25.9224C80.5892 25.932 80.6813 25.9567 80.7721 25.9746L81.3386 25.9746C81.3881 25.9622 81.4376 25.9444 81.4871 25.9361C81.6837 25.9045 81.8831 25.8852 82.077 25.8454C82.7356 25.712 83.3365 25.4548 83.8453 25.0038C84.1684 24.7164 84.4407 24.3837 84.7033 24.044C84.7968 23.9244 84.8931 23.8062 84.9907 23.6893C85.0828 23.5793 85.2038 23.5394 85.3427 23.56C85.4459 23.5765 85.549 23.5999 85.6494 23.6274C86.0509 23.736 86.4579 23.8075 86.8732 23.8268C87.6404 23.8625 88.3747 23.714 89.0856 23.4322C89.7346 23.175 90.33 22.8271 90.8663 22.3816C91.397 21.9402 91.8591 21.4328 92.2441 20.8581C92.5933 20.3383 92.8518 19.78 92.9385 19.1544C93.0292 18.4916 93.0113 17.8261 92.9288 17.162C92.9288 17.162 92.6401 12.9873 87.6803 12.9873C92.6401 12.9873 92.9288 8.8127 92.9288 8.8127C93.0113 8.14993 93.0292 7.48441 92.9385 6.82026C92.8532 6.19599 92.5947 5.63772 92.2441 5.11658C91.8577 4.54181 91.397 4.0358 90.8663 3.59303C90.33 3.14752 89.7346 2.79963 89.0856 2.5425C88.3747 2.26062 87.6404 2.11211 86.8732 2.14786C86.4579 2.16712 86.0509 2.23724 85.6494 2.34725C85.549 2.37475 85.4459 2.39812 85.3427 2.41462C85.2038 2.43662 85.0828 2.39675 84.9907 2.28537C84.8931 2.16849 84.7968 2.05161 84.7033 1.93061C84.4407 1.5896 84.1684 1.25684 83.8453 0.970828C83.3379 0.519814 82.7356 0.26268 82.077 0.129301C81.8817 0.0894244 81.6837 0.0701754 81.4871 0.0385495C81.4362 0.0302992 81.3881 0.0137989 81.3386 4.84411e-05L80.7721 4.84659e-05C80.6813 0.017924 80.5906 0.0426734 80.4971 0.0522987ZM74.1568 9.93473C73.9065 9.17983 73.8762 8.41256 74.0729 7.64116C74.2118 7.09939 74.4991 6.65388 74.9763 6.34312C75.4823 6.01311 76.0474 5.87423 76.6415 5.83711C76.8051 5.82611 76.911 5.90586 76.9591 6.06536C76.9935 6.17949 77.0182 6.29912 77.0278 6.41875C77.0595 6.81889 77.1117 7.2149 77.3111 7.56966C77.4596 7.83367 77.6219 8.09355 77.8034 8.33556C78.2915 8.98458 78.7934 9.62397 79.2898 10.2675C79.3228 10.3101 79.3544 10.3555 79.3984 10.4146C79.2348 10.4779 79.0959 10.5356 78.9529 10.5865C78.3575 10.7996 77.6865 10.526 77.4156 10.1259C77.3139 9.97598 77.1722 9.85361 77.043 9.72435C76.9962 9.6776 76.9371 9.63497 76.8463 9.67623C76.8395 9.72435 76.8271 9.78073 76.8271 9.8371C76.8257 10.0104 76.8271 10.1836 76.8326 10.3555C76.8422 10.669 76.9508 10.9454 77.1433 11.1956C77.2644 11.3524 77.3689 11.5243 77.4624 11.6989C77.5641 11.89 77.516 11.9712 77.3097 12.0303C77.0663 12.0991 76.823 12.0922 76.5796 12.0358C76.1781 11.9423 75.8054 11.7759 75.4562 11.56C74.825 11.1736 74.3878 10.6346 74.1568 9.93473ZM79.8563 6.50263C80.1836 6.71026 80.493 6.94402 80.812 7.1654C80.8711 7.20665 80.889 7.2589 80.8903 7.32628C80.8931 7.50916 80.8958 7.69341 80.9068 7.87629C80.9357 8.36581 81.0003 8.8457 81.2726 9.27471C81.373 9.43147 81.3386 9.5566 81.1887 9.67072C80.9728 9.83573 80.7405 9.85636 80.4943 9.73948C80.2399 9.61847 80.0227 9.44659 79.8357 9.23896C79.5689 8.94333 79.3049 8.64494 79.0437 8.34381C78.6586 7.89967 78.3135 7.42528 78.0247 6.91101C77.9106 6.70751 77.8254 6.49575 77.8199 6.25924C77.8199 6.23312 77.8185 6.20699 77.8199 6.18087C77.8364 5.95398 77.912 5.89486 78.1361 5.94023C78.3465 5.98286 78.5555 6.03236 78.7659 6.07911C79.1482 6.16299 79.5222 6.28949 79.8563 6.50263ZM82.8085 4.90895C83.0574 4.55969 83.3475 4.25305 83.7202 4.03305C83.9526 3.89554 84.2056 3.81992 84.4943 3.76217C84.603 4.11693 84.7102 4.45106 84.8051 4.78795C84.9041 5.14271 84.9495 5.50572 84.9536 5.87423C84.9605 6.361 84.889 6.83676 84.7625 7.30428C84.6483 7.73054 84.4875 8.13893 84.2702 8.52531C83.9773 9.04645 83.5497 9.43422 83.0492 9.74773C82.7741 9.91961 82.6531 9.89073 82.5253 9.59235C82.3465 9.17846 82.1678 8.76457 82.0179 8.33968C81.8226 7.78692 81.813 7.22177 81.9642 6.6525C82.1334 6.01723 82.429 5.44247 82.8085 4.90895ZM70.4799 13.1785C70.473 13.1138 70.4716 13.0492 70.4716 12.9873C70.4716 12.9241 70.4744 12.8608 70.4799 12.7962C70.5761 11.7883 71.474 11.1159 72.3651 11.1613C73.3097 11.1915 74.1224 11.9684 74.1155 12.9887C74.121 14.009 73.3084 14.7859 72.3651 14.8161C71.474 14.8588 70.5775 14.1877 70.4799 13.1785ZM74.9749 19.6302C74.4978 19.3194 74.2104 18.8753 74.0715 18.3321C73.8749 17.5607 73.9051 16.7934 74.1554 16.0385C74.3864 15.34 74.8236 14.7996 75.4507 14.4132C75.8013 14.1974 76.1726 14.031 76.5741 13.9375C76.8175 13.8811 77.0608 13.8742 77.3042 13.943C77.5105 14.0007 77.5586 14.0832 77.4569 14.2744C77.3634 14.449 77.2589 14.6209 77.1378 14.7776C76.9453 15.0279 76.8367 15.3029 76.8271 15.6178C76.8216 15.791 76.8202 15.9643 76.8216 16.1362C76.8216 16.1926 76.8353 16.2476 76.8408 16.2971C76.9316 16.3397 76.9907 16.2971 77.0375 16.2489C77.1667 16.1183 77.3084 15.9973 77.4101 15.8474C77.6796 15.4473 78.352 15.175 78.9474 15.3868C79.0904 15.4377 79.2293 15.4954 79.3929 15.5587C79.3489 15.6178 79.3173 15.6618 79.2843 15.7058C78.7879 16.3493 78.286 16.9887 77.7979 17.6377C77.6164 17.8797 77.4541 18.1396 77.3056 18.4036C77.1062 18.7584 77.054 19.1544 77.0223 19.5545C77.0127 19.6742 76.9893 19.7938 76.9536 19.9079C76.9055 20.066 76.7996 20.1458 76.636 20.1362C76.0461 20.0991 75.4823 19.9602 74.9749 19.6302ZM81.9642 19.3208C81.813 18.7515 81.8212 18.1864 82.0179 17.6336C82.1678 17.2101 82.3465 16.7948 82.5253 16.3809C82.6545 16.0826 82.7741 16.0523 83.0492 16.2256C83.5497 16.5391 83.9759 16.9268 84.2702 17.448C84.4875 17.8344 84.6483 18.2427 84.7625 18.669C84.8876 19.1365 84.9591 19.6123 84.9536 20.0991C84.9495 20.4676 84.9027 20.8319 84.8051 21.1853C84.7116 21.5236 84.603 21.8564 84.4943 22.2111C84.2056 22.1534 83.9526 22.0777 83.7202 21.9402C83.3475 21.7202 83.0574 21.4136 82.8085 21.0643C82.429 20.5322 82.1334 19.9574 81.9642 19.3208ZM78.7631 19.8969C78.5528 19.9437 78.3438 19.9932 78.1334 20.0358C77.9092 20.0812 77.8336 20.022 77.8171 19.7952C77.8157 19.769 77.8171 19.7429 77.8171 19.7168C77.8226 19.4803 77.9092 19.2685 78.022 19.065C78.3094 18.5508 78.6545 18.0777 79.0409 17.6322C79.3022 17.3311 79.5662 17.0327 79.8329 16.7371C80.0199 16.5294 80.2372 16.3576 80.4916 16.2366C80.7377 16.1211 80.9701 16.1403 81.186 16.3053C81.3359 16.4194 81.3702 16.5446 81.2699 16.7013C80.9976 17.1303 80.933 17.6088 80.9041 18.0997C80.8931 18.2826 80.8917 18.4669 80.8876 18.6498C80.8862 18.7171 80.8683 18.7694 80.8092 18.8106C80.4902 19.0306 80.1808 19.2658 79.8536 19.4734C79.5222 19.6852 79.1482 19.8117 78.7631 19.8969ZM83.9251 23.0499C84.0653 23.197 84.0488 23.296 83.8701 23.4005C83.7587 23.4665 83.6349 23.5147 83.5125 23.56C83.3104 23.6357 83.1 23.681 82.858 23.6797C82.4208 23.6673 82.0619 23.4473 81.7745 23.1063C81.56 22.8519 81.4321 22.5563 81.4225 22.218C81.4211 22.1602 81.4142 22.1025 81.4005 22.0461C81.3716 21.9347 81.2974 21.8674 81.1818 21.8481C81.0705 21.8302 80.9838 21.8674 80.9316 21.9677C80.8917 22.0461 80.8518 22.1286 80.8285 22.2125C80.6937 22.7199 80.3554 23.0114 79.8618 23.1461C79.5978 23.2176 79.331 23.2589 79.056 23.2493C78.5761 23.2328 78.2393 22.9921 77.9959 22.5948C77.8749 22.3967 77.791 22.1822 77.7236 21.9609C77.7112 21.921 77.7044 21.8784 77.7002 21.8371C77.6892 21.7175 77.7264 21.646 77.8364 21.5978C77.9079 21.5662 77.9835 21.5428 78.0605 21.5277C78.5569 21.4315 79.023 21.2445 79.4892 21.0561C79.7229 20.9612 79.9498 20.8539 80.1561 20.7082C80.3252 20.5886 80.4641 20.4401 80.5658 20.2586C80.6318 20.1403 80.7212 20.0482 80.8477 19.9959C81.0416 19.9148 81.1571 19.9533 81.2437 20.1444C81.2974 20.2627 81.3372 20.3892 81.3757 20.5129C81.5119 20.9571 81.7057 21.3723 82 21.7367C82.3025 22.1135 82.6903 22.372 83.1358 22.5535C83.2953 22.6181 83.4548 22.691 83.6005 22.7804C83.7188 22.8546 83.8288 22.9481 83.9251 23.0499ZM87.0533 14.2771C87.5359 14.3775 88.0172 14.4765 88.4985 14.5824C89.2011 14.7391 89.8006 15.0746 90.2585 15.6384C90.8828 16.4057 91.2307 17.2747 91.1839 18.2757C91.144 19.1173 90.8512 19.8694 90.3465 20.5404C89.9835 21.0231 89.5421 21.4232 89.032 21.7464C88.658 21.9842 88.2592 22.1657 87.8274 22.2744C87.2788 22.4132 86.7274 22.5384 86.165 22.614C86.0633 22.6278 85.956 22.6195 85.8529 22.6058C85.6947 22.5838 85.615 22.4999 85.6246 22.339C85.6356 22.163 85.6714 21.987 85.7057 21.8124C85.7717 21.4672 85.8556 21.1262 85.9106 20.7797C85.9849 20.3108 85.978 19.8392 85.9285 19.3675C85.8859 18.955 85.8075 18.548 85.6741 18.1547C85.4651 17.5428 85.142 16.9928 84.7418 16.4896C84.592 16.3012 84.4338 16.1183 84.2826 15.9313C84.2496 15.8914 84.2207 15.846 84.2001 15.7993C84.1519 15.6934 84.1726 15.6315 84.2894 15.6192C84.4861 15.5985 84.6868 15.5889 84.8835 15.604C85.3386 15.6398 85.7209 15.8515 86.0756 16.1266C86.5899 16.5253 87.0203 17.0025 87.4218 17.5098C87.5648 17.6913 87.7023 17.8756 87.8439 18.0585C87.8632 18.0832 87.8797 18.1107 87.9017 18.1327C87.9636 18.1974 88.0117 18.1905 88.0433 18.1107C88.0612 18.0681 88.0722 18.02 88.0763 17.9732C88.0928 17.7959 88.1052 17.6185 88.1189 17.4411C88.1272 16.7522 87.9306 16.1169 87.6253 15.5092C87.5002 15.2616 87.3159 15.0623 87.0904 14.9C87.0148 14.845 86.9419 14.7845 86.8732 14.7199C86.7906 14.6415 86.7466 14.5398 86.7343 14.427C86.7219 14.3087 86.7631 14.2606 86.8814 14.2606C86.9392 14.2592 86.9969 14.2661 87.0533 14.2771ZM85.2864 12.6766C85.2355 12.7453 85.2286 12.8209 85.2754 12.898C85.2919 12.9241 85.3042 12.953 85.318 12.9791C85.3166 12.9818 85.3152 12.9846 85.3139 12.9873C85.3152 12.9901 85.3166 12.9928 85.318 12.9956C85.3042 13.0217 85.2919 13.0492 85.2754 13.0767C85.2286 13.1537 85.2355 13.228 85.2864 13.2981C85.3331 13.3613 85.3826 13.4232 85.4349 13.481C85.6837 13.7574 85.945 14.0227 86.1361 14.3472C86.2516 14.5425 86.3259 14.7556 86.3836 14.9729C86.3919 15.0031 86.396 15.0348 86.3988 15.0664C86.4098 15.2286 86.2846 15.3235 86.1334 15.2616C86.0825 15.241 86.0316 15.2039 85.9945 15.1613C85.7497 14.8766 85.4307 14.7158 85.0842 14.5961C84.7171 14.4682 84.3458 14.3582 83.9594 14.3129C83.5208 14.2606 83.0904 14.2922 82.6751 14.4545C82.4194 14.5549 82.2118 14.713 82.0495 14.9371C81.9175 15.12 81.7841 15.3015 81.637 15.472C81.483 15.6494 81.406 15.6302 81.3249 15.4088C81.296 15.3304 81.274 15.2493 81.2465 15.1695C81.0196 14.5123 80.3266 14.0612 79.6404 14.1176C79.3255 14.1424 79.0574 14.2757 78.8016 14.4462C78.693 14.5178 78.5775 14.581 78.4634 14.647C78.4318 14.6649 78.3988 14.6828 78.3644 14.6951C78.2104 14.7515 78.1348 14.713 78.1348 14.5521C78.1348 14.1561 78.2021 13.7766 78.4799 13.47C78.6064 13.3311 78.7535 13.2115 78.8924 13.0836C78.9227 13.0561 78.9529 13.0272 78.9955 12.9901L78.9942 12.9887L78.9955 12.9873C78.9543 12.9488 78.924 12.9213 78.8924 12.8938C78.7535 12.7659 78.6064 12.6463 78.4799 12.5074C78.2021 12.2022 78.1348 11.8213 78.1348 11.4253C78.1348 11.2658 78.2104 11.2259 78.3644 11.2823C78.3988 11.2947 78.4318 11.3125 78.4634 11.3304C78.5761 11.3964 78.6916 11.4583 78.8016 11.5312C79.0588 11.7017 79.3255 11.8337 79.6404 11.8598C80.3266 11.9148 81.0196 11.4652 81.2465 10.8079C81.274 10.7281 81.296 10.647 81.3249 10.5686C81.406 10.3486 81.483 10.328 81.637 10.5054C81.7841 10.6759 81.9175 10.8574 82.0495 11.0403C82.2104 11.2644 82.4194 11.4225 82.6751 11.5229C83.0904 11.6852 83.5208 11.7168 83.9594 11.6645C84.3458 11.6178 84.7185 11.5078 85.0842 11.3813C85.4307 11.2603 85.7497 11.0994 85.9945 10.8161C86.0302 10.7735 86.0811 10.7364 86.1334 10.7158C86.2846 10.6539 86.4098 10.7488 86.3988 10.911C86.396 10.9426 86.3919 10.9743 86.3836 11.0045C86.3245 11.2231 86.2516 11.4349 86.1361 11.6302C85.945 11.9533 85.6837 12.2201 85.4349 12.4964C85.3826 12.5528 85.3331 12.6133 85.2864 12.6766ZM86.1664 3.35928C86.7274 3.4349 87.2802 3.56003 87.8288 3.69891C88.2606 3.80754 88.6593 3.98905 89.0333 4.22693C89.5421 4.55006 89.9835 4.9502 90.3479 5.43284C90.8525 6.10386 91.1468 6.85601 91.1853 7.69754C91.232 8.69857 90.8842 9.5676 90.2599 10.3349C89.802 10.8973 89.2025 11.2341 88.4998 11.3909C88.0199 11.4982 87.5373 11.5958 87.0547 11.6962C86.9983 11.7085 86.9405 11.714 86.8828 11.714C86.7645 11.7127 86.7219 11.6659 86.7356 11.5477C86.748 11.4349 86.792 11.3332 86.8745 11.2548C86.9419 11.1901 87.0148 11.1296 87.0918 11.0746C87.3173 10.9124 87.5015 10.713 87.6267 10.4655C87.9319 9.85911 88.1286 9.22384 88.1203 8.53356C88.1066 8.35618 88.0942 8.1788 88.0777 8.00142C88.0736 7.95467 88.0626 7.90792 88.0447 7.86392C88.0131 7.78416 87.9649 7.77729 87.9031 7.84192C87.8811 7.86392 87.8646 7.89142 87.8453 7.91617C87.7051 8.09905 87.5675 8.28468 87.4232 8.46481C87.0217 8.9722 86.5913 9.44934 86.077 9.84811C85.7222 10.1231 85.34 10.3349 84.8848 10.3706C84.6882 10.3857 84.4875 10.3761 84.2908 10.3555C84.1739 10.3431 84.1533 10.2812 84.2014 10.1754C84.2221 10.1286 84.2523 10.0832 84.2839 10.0434C84.4366 9.85636 84.5933 9.67347 84.7432 9.48509C85.1447 8.98045 85.4665 8.43181 85.6755 7.81992C85.8102 7.42665 85.8872 7.01964 85.9299 6.60713C85.9794 6.13686 85.9862 5.66385 85.912 5.19496C85.857 4.84845 85.7731 4.50744 85.7071 4.1623C85.6741 3.98767 85.637 3.81167 85.626 3.63566C85.6164 3.47478 85.6961 3.3909 85.8542 3.3689C85.9574 3.35378 86.0646 3.34553 86.1664 3.35928ZM83.5125 2.41462C83.6349 2.46 83.7587 2.50813 83.8701 2.57413C84.0488 2.68001 84.0653 2.77901 83.9251 2.92476C83.8288 3.02514 83.7188 3.12002 83.5992 3.19152C83.452 3.2809 83.2939 3.35378 83.1344 3.41841C82.6889 3.59991 82.3025 3.85842 81.9986 4.23518C81.7057 4.59957 81.5119 5.01483 81.3744 5.45897C81.3359 5.5841 81.296 5.70923 81.2424 5.82748C81.1571 6.01861 81.0402 6.05849 80.8463 5.97598C80.7198 5.92236 80.6305 5.83023 80.5645 5.71335C80.4627 5.53184 80.3238 5.38334 80.1547 5.26371C79.9484 5.11796 79.7216 5.01071 79.4878 4.91583C79.0217 4.72745 78.5555 4.53906 78.0591 4.44419C77.9821 4.42906 77.9065 4.40569 77.835 4.37406C77.725 4.32593 77.6892 4.25443 77.6989 4.1348C77.703 4.09355 77.7099 4.05092 77.7222 4.01105C77.7896 3.78967 77.8735 3.57653 77.9945 3.37715C78.2379 2.97977 78.5748 2.74051 79.0547 2.72263C79.3297 2.71301 79.5964 2.75288 79.8604 2.82576C80.3527 2.96051 80.6923 3.25202 80.8271 3.75942C80.8491 3.84467 80.889 3.9258 80.9302 4.00417C80.9811 4.10455 81.0691 4.14168 81.1805 4.1238C81.296 4.10593 81.3702 4.03855 81.3991 3.92579C81.4129 3.87079 81.4197 3.81167 81.4211 3.75391C81.4321 3.41428 81.5586 3.11865 81.7731 2.86564C82.0619 2.52463 82.4194 2.30462 82.8567 2.29224C83.1 2.29362 83.3104 2.339 83.5125 2.41462Z" fill="#E9AD77"/>
</svg>
