<svg width="93" height="26" viewBox="0 0 93 26" fill="none" xmlns="http://www.w3.org/2000/svg">
<line y1="-0.5" x2="64" y2="-0.5" transform="matrix(-1 0 0 1 92.999 12.9746)" stroke="#E9AD77"/>
<path d="M12.502 0.0522529C13.4397 0.149881 14.24 0.539018 14.9207 1.18254C15.6013 1.82468 16.0523 2.59058 16.1967 3.52699C16.2269 3.72774 16.2764 3.9285 16.3342 4.12376C16.392 4.32039 16.5336 4.44002 16.7371 4.47852C16.7838 4.48814 16.8292 4.49777 16.876 4.50327C17.1097 4.52802 17.3462 4.54039 17.5786 4.57615C18.1259 4.66277 18.6236 4.87728 19.0747 5.19904C19.7113 5.6528 20.1829 6.2372 20.447 6.9756C20.5542 7.27535 20.6436 7.58474 20.7096 7.8955C20.8471 8.53489 20.9062 9.17979 20.7962 9.83293C20.7687 9.99244 20.7508 10.1547 20.7453 10.3169C20.7412 10.4503 20.8045 10.5081 20.9378 10.5108C21.0423 10.5136 21.1482 10.5081 21.2514 10.493C21.8275 10.4146 22.3706 10.493 22.8588 10.8298C23.3675 11.1819 23.7416 11.6329 23.8749 12.2516C23.9244 12.4813 23.9602 12.715 23.9973 12.9488C24.0001 12.9625 23.9987 12.9749 23.9987 12.9873C23.9987 12.9997 24.0001 13.012 23.9973 13.023C23.9588 13.2554 23.9244 13.4892 23.8749 13.7202C23.7416 14.3389 23.3675 14.79 22.8588 15.142C22.3706 15.4802 21.8275 15.5572 21.2514 15.4789C21.1482 15.4651 21.0423 15.4596 20.9378 15.461C20.8031 15.4637 20.7412 15.5215 20.7453 15.6549C20.7508 15.8171 20.7687 15.9794 20.7962 16.1389C20.9076 16.7907 20.8471 17.4369 20.7096 18.0763C20.6422 18.3885 20.5542 18.6965 20.447 18.9962C20.1829 19.7346 19.7113 20.319 19.0747 20.7728C18.6236 21.0945 18.1259 21.309 17.5786 21.3957C17.3462 21.4328 17.1097 21.4438 16.876 21.4685C16.8292 21.474 16.7825 21.4837 16.7371 21.4933C16.5336 21.5332 16.3919 21.6528 16.3342 21.8481C16.2764 22.0433 16.2283 22.2427 16.1967 22.4448C16.0537 23.3812 15.6013 24.1471 14.9207 24.7893C14.2386 25.4355 13.4384 25.8247 12.502 25.9223C12.4098 25.9319 12.3177 25.9567 12.2269 25.9746L11.6604 25.9746C11.6109 25.9622 11.5614 25.9443 11.5119 25.9361C11.3153 25.9044 11.1159 25.8852 10.922 25.8453C10.2634 25.7119 9.66249 25.4548 9.15372 25.0038C8.83059 24.7164 8.55833 24.3836 8.2957 24.044C8.20219 23.9244 8.10594 23.8061 8.00831 23.6892C7.91618 23.5792 7.79518 23.5394 7.6563 23.56C7.55317 23.5765 7.45004 23.5999 7.34967 23.6274C6.94815 23.736 6.54114 23.8075 6.12588 23.8267C5.35861 23.8625 4.62433 23.714 3.91343 23.4321C3.26441 23.175 2.66902 22.8271 2.13275 22.3816C1.60199 21.9402 1.13997 21.4328 0.754962 20.858C0.405701 20.3383 0.147193 19.78 0.0605651 19.1543C-0.0301877 18.4916 -0.0123132 17.8261 0.0701894 17.1619C0.0701894 17.1619 0.358948 12.9873 5.31873 12.9873C0.358948 12.9873 0.0701898 8.81265 0.0701898 8.81265C-0.0123127 8.14988 -0.0301872 7.48436 0.0605657 6.82021C0.145818 6.19594 0.404327 5.63768 0.754963 5.11654C1.14135 4.54177 1.60199 4.03575 2.13275 3.59299C2.66902 3.14747 3.26441 2.79959 3.91343 2.54246C4.62433 2.26057 5.35861 2.11207 6.12588 2.14782C6.54114 2.16707 6.94816 2.2372 7.34967 2.3472C7.45005 2.3747 7.55317 2.39808 7.6563 2.41458C7.79518 2.43658 7.91619 2.3967 8.00831 2.28532C8.10594 2.16844 8.2022 2.05157 8.2957 1.93056C8.55833 1.58955 8.83059 1.25679 9.15372 0.970783C9.66112 0.519768 10.2634 0.262634 10.922 0.129255C11.1173 0.0893787 11.3153 0.0701297 11.5119 0.0385037C11.5628 0.0302534 11.6109 0.0137531 11.6604 2.66474e-06L12.2269 2.6895e-06C12.3177 0.0178783 12.4085 0.0426276 12.502 0.0522529ZM18.8423 9.93469C19.0925 9.17979 19.1228 8.41251 18.9262 7.64112C18.7873 7.09935 18.4999 6.65383 18.0228 6.34307C17.5167 6.01306 16.9516 5.87419 16.3576 5.83706C16.1939 5.82606 16.0881 5.90581 16.0399 6.06532C16.0056 6.17945 15.9808 6.29907 15.9712 6.4187C15.9396 6.81884 15.8873 7.21485 15.6879 7.56961C15.5394 7.83362 15.3772 8.0935 15.1957 8.33551C14.7075 8.98453 14.2056 9.62393 13.7092 10.2674C13.6762 10.3101 13.6446 10.3554 13.6006 10.4146C13.7642 10.4778 13.9031 10.5356 14.0461 10.5865C14.6415 10.7996 15.3125 10.526 15.5834 10.1258C15.6852 9.97594 15.8268 9.85356 15.9561 9.72431C16.0028 9.67755 16.0619 9.63493 16.1527 9.67618C16.1596 9.72431 16.1719 9.78068 16.1719 9.83706C16.1733 10.0103 16.1719 10.1836 16.1664 10.3555C16.1568 10.669 16.0482 10.9453 15.8557 11.1956C15.7347 11.3524 15.6302 11.5242 15.5367 11.6989C15.4349 11.89 15.483 11.9711 15.6893 12.0303C15.9327 12.099 16.1761 12.0921 16.4195 12.0358C16.821 11.9422 17.1936 11.7759 17.5429 11.56C18.174 11.1736 18.6113 10.6346 18.8423 9.93469ZM13.1427 6.50258C12.8155 6.71021 12.5061 6.94397 12.1871 7.16535C12.1279 7.2066 12.1101 7.25885 12.1087 7.32623C12.1059 7.50911 12.1032 7.69337 12.0922 7.87625C12.0633 8.36576 11.9987 8.84565 11.7264 9.27467C11.6261 9.43142 11.6604 9.55655 11.8103 9.67068C12.0262 9.83568 12.2586 9.85631 12.5047 9.73943C12.7591 9.61843 12.9763 9.44655 13.1633 9.23892C13.4301 8.94328 13.6941 8.6449 13.9554 8.34376C14.3404 7.89962 14.6855 7.42523 14.9743 6.91097C15.0884 6.70746 15.1737 6.4957 15.1792 6.2592C15.1792 6.23307 15.1805 6.20695 15.1792 6.18082C15.1627 5.95394 15.087 5.89481 14.8629 5.94019C14.6525 5.98281 14.4435 6.03232 14.2331 6.07907C13.8509 6.16294 13.4769 6.28945 13.1427 6.50258ZM10.1905 4.90891C9.94162 4.55964 9.65149 4.25301 9.27885 4.033C9.04647 3.8955 8.79346 3.81987 8.5047 3.76212C8.39608 4.11688 8.28882 4.45102 8.19394 4.7879C8.09494 5.14266 8.04957 5.50567 8.04544 5.87419C8.03856 6.36095 8.11007 6.83672 8.23657 7.30423C8.3507 7.73049 8.51158 8.13888 8.72884 8.52527C9.02172 9.04641 9.44936 9.43417 9.94987 9.74768C10.2249 9.91956 10.3459 9.89069 10.4738 9.5923C10.6525 9.17841 10.8313 8.76453 10.9812 8.33964C11.1764 7.78687 11.186 7.22173 11.0348 6.65246C10.8657 6.01719 10.57 5.44242 10.1905 4.90891ZM22.5191 13.1784C22.526 13.1138 22.5274 13.0492 22.5274 12.9873C22.5274 12.924 22.5246 12.8608 22.5191 12.7962C22.4229 11.7882 21.525 11.1158 20.634 11.1612C19.6893 11.1915 18.8767 11.9684 18.8835 12.9887C18.878 14.0089 19.6907 14.7858 20.634 14.8161C21.525 14.8587 22.4215 14.1877 22.5191 13.1784ZM18.0241 19.6301C18.5013 19.3194 18.7886 18.8752 18.9275 18.3321C19.1242 17.5607 19.0939 16.7934 18.8437 16.0385C18.6126 15.34 18.1754 14.7996 17.5484 14.4132C17.1977 14.1973 16.8265 14.0309 16.425 13.9374C16.1816 13.8811 15.9382 13.8742 15.6948 13.9429C15.4885 14.0007 15.4404 14.0832 15.5422 14.2743C15.6357 14.449 15.7402 14.6208 15.8612 14.7776C16.0537 15.0278 16.1623 15.3029 16.1719 15.6177C16.1774 15.791 16.1788 15.9643 16.1774 16.1361C16.1774 16.1925 16.1637 16.2475 16.1582 16.297C16.0674 16.3396 16.0083 16.297 15.9616 16.2489C15.8323 16.1183 15.6907 15.9973 15.5889 15.8474C15.3194 15.4472 14.647 15.175 14.0516 15.3867C13.9086 15.4376 13.7697 15.4954 13.6061 15.5586C13.6501 15.6177 13.6817 15.6617 13.7147 15.7057C14.2111 16.3493 14.713 16.9887 15.2012 17.6377C15.3827 17.8797 15.5449 18.1396 15.6934 18.4036C15.8928 18.7583 15.9451 19.1544 15.9767 19.5545C15.9863 19.6741 16.0097 19.7937 16.0454 19.9079C16.0936 20.066 16.1994 20.1458 16.3631 20.1361C16.953 20.099 17.5167 19.9601 18.0241 19.6301ZM11.0348 19.3207C11.186 18.7515 11.1778 18.1863 10.9812 17.6336C10.8313 17.21 10.6525 16.7948 10.4738 16.3809C10.3445 16.0825 10.2249 16.0523 9.94987 16.2255C9.44936 16.539 9.02309 16.9268 8.72884 17.4479C8.51158 17.8343 8.3507 18.2427 8.23657 18.669C8.11144 19.1365 8.03994 19.6122 8.04544 20.099C8.04956 20.4675 8.09632 20.8319 8.19394 21.1853C8.28745 21.5235 8.39607 21.8563 8.5047 22.2111C8.79346 22.1533 9.04647 22.0777 9.27885 21.9402C9.65149 21.7202 9.94162 21.4135 10.1905 21.0643C10.57 20.5321 10.8657 19.9574 11.0348 19.3207ZM14.2359 19.8969C14.4463 19.9436 14.6553 19.9931 14.8657 20.0358C15.0898 20.0811 15.1654 20.022 15.1819 19.7951C15.1833 19.769 15.1819 19.7429 15.1819 19.7167C15.1764 19.4802 15.0898 19.2685 14.977 19.065C14.6896 18.5507 14.3445 18.0777 13.9581 17.6322C13.6969 17.331 13.4329 17.0327 13.1661 16.737C12.9791 16.5294 12.7618 16.3575 12.5075 16.2365C12.2613 16.121 12.0289 16.1403 11.8131 16.3053C11.6632 16.4194 11.6288 16.5445 11.7292 16.7013C12.0014 17.1303 12.0661 17.6088 12.0949 18.0997C12.1059 18.2826 12.1073 18.4668 12.1114 18.6497C12.1128 18.7171 12.1307 18.7693 12.1898 18.8106C12.5088 19.0306 12.8182 19.2657 13.1455 19.4734C13.4769 19.6851 13.8509 19.8116 14.2359 19.8969ZM9.07397 23.0498C8.93372 23.197 8.95022 23.296 9.12897 23.4005C9.24035 23.4665 9.3641 23.5146 9.48648 23.56C9.68862 23.6356 9.899 23.681 10.141 23.6796C10.5783 23.6672 10.9372 23.4472 11.2245 23.1062C11.439 22.8518 11.5669 22.5562 11.5765 22.2179C11.5779 22.1602 11.5848 22.1024 11.5985 22.0461C11.6274 21.9347 11.7017 21.8673 11.8172 21.8481C11.9286 21.8302 12.0152 21.8673 12.0674 21.9677C12.1073 22.0461 12.1472 22.1286 12.1706 22.2124C12.3053 22.7198 12.6436 23.0113 13.1372 23.1461C13.4012 23.2176 13.668 23.2589 13.943 23.2492C14.4229 23.2327 14.7598 22.9921 15.0032 22.5947C15.1242 22.3967 15.208 22.1822 15.2754 21.9608C15.2878 21.9209 15.2947 21.8783 15.2988 21.8371C15.3098 21.7174 15.2727 21.6459 15.1627 21.5978C15.0912 21.5662 15.0155 21.5428 14.9385 21.5277C14.4421 21.4314 13.976 21.2444 13.5099 21.056C13.2761 20.9612 13.0492 20.8539 12.843 20.7081C12.6738 20.5885 12.535 20.44 12.4332 20.2585C12.3672 20.1403 12.2778 20.0481 12.1513 19.9959C11.9574 19.9147 11.8419 19.9532 11.7553 20.1444C11.7017 20.2626 11.6618 20.3891 11.6233 20.5129C11.4872 20.957 11.2933 21.3723 10.999 21.7367C10.6965 22.1134 10.3088 22.372 9.86325 22.5535C9.70374 22.6181 9.54424 22.691 9.39848 22.7803C9.28023 22.8546 9.17022 22.9481 9.07397 23.0498ZM5.94575 14.2771C5.46311 14.3775 4.98184 14.4765 4.50058 14.5823C3.79793 14.7391 3.19841 15.0746 2.74052 15.6384C2.11625 16.4056 1.76837 17.2747 1.81512 18.2757C1.855 19.1172 2.14788 19.8694 2.65252 20.5404C3.01553 21.023 3.45692 21.4232 3.96706 21.7463C4.34107 21.9842 4.73984 22.1657 5.1716 22.2743C5.72024 22.4132 6.27163 22.5383 6.83403 22.614C6.93578 22.6277 7.04303 22.6195 7.14616 22.6057C7.30429 22.5837 7.38404 22.4998 7.37442 22.3389C7.36342 22.1629 7.32767 21.9869 7.29329 21.8123C7.22729 21.4672 7.14341 21.1262 7.08841 20.7797C7.01416 20.3108 7.02103 19.8391 7.07053 19.3675C7.11316 18.955 7.19154 18.548 7.32492 18.1547C7.53392 17.5428 7.85706 16.9928 8.2572 16.4895C8.40707 16.3011 8.56521 16.1183 8.71646 15.9312C8.74946 15.8914 8.77834 15.846 8.79896 15.7992C8.84709 15.6934 8.82646 15.6315 8.70958 15.6191C8.51295 15.5985 8.3122 15.5889 8.11557 15.604C7.66043 15.6397 7.27817 15.8515 6.9234 16.1265C6.40914 16.5253 5.97875 17.0024 5.57724 17.5098C5.43423 17.6913 5.29673 17.8756 5.1551 18.0584C5.13585 18.0832 5.11935 18.1107 5.09735 18.1327C5.03547 18.1973 4.98734 18.1904 4.95572 18.1107C4.93784 18.0681 4.92684 18.0199 4.92272 17.9732C4.90622 17.7958 4.89384 17.6184 4.88009 17.441C4.87184 16.7521 5.06847 16.1169 5.37373 15.5091C5.49886 15.2616 5.68312 15.0622 5.90862 14.9C5.98425 14.845 6.05713 14.7845 6.12588 14.7198C6.20838 14.6415 6.25238 14.5397 6.26476 14.427C6.27713 14.3087 6.23588 14.2606 6.11763 14.2606C6.05988 14.2592 6.00213 14.2661 5.94575 14.2771ZM7.71268 12.6765C7.76356 12.7453 7.77043 12.8209 7.72368 12.8979C7.70718 12.924 7.6948 12.9529 7.68105 12.979C7.68243 12.9818 7.6838 12.9845 7.68518 12.9873C7.6838 12.99 7.68243 12.9928 7.68105 12.9955C7.6948 13.0217 7.70718 13.0492 7.72368 13.0767C7.77043 13.1537 7.76356 13.2279 7.71268 13.298C7.66593 13.3613 7.61643 13.4232 7.56417 13.4809C7.31529 13.7573 7.05403 14.0227 6.8629 14.3472C6.7474 14.5425 6.67315 14.7556 6.61539 14.9728C6.60714 15.0031 6.60302 15.0347 6.60027 15.0663C6.58927 15.2286 6.7144 15.3235 6.86565 15.2616C6.91653 15.241 6.96741 15.2039 7.00453 15.1612C7.24929 14.8766 7.5683 14.7157 7.91481 14.5961C8.28195 14.4682 8.65321 14.3582 9.0396 14.3128C9.47823 14.2606 9.90862 14.2922 10.3239 14.4545C10.5796 14.5548 10.7873 14.713 10.9495 14.9371C11.0815 15.12 11.2149 15.3015 11.362 15.472C11.516 15.6494 11.5931 15.6301 11.6742 15.4087C11.7031 15.3304 11.7251 15.2492 11.7526 15.1695C11.9794 14.5122 12.6725 14.0612 13.3586 14.1176C13.6735 14.1423 13.9416 14.2757 14.1974 14.4462C14.306 14.5177 14.4215 14.581 14.5356 14.647C14.5673 14.6648 14.6003 14.6827 14.6346 14.6951C14.7887 14.7515 14.8643 14.713 14.8643 14.5521C14.8643 14.1561 14.7969 13.7766 14.5191 13.4699C14.3926 13.331 14.2455 13.2114 14.1066 13.0835C14.0764 13.056 14.0461 13.0272 14.0035 12.99L14.0049 12.9887L14.0035 12.9873C14.0448 12.9488 14.075 12.9213 14.1066 12.8938C14.2455 12.7659 14.3926 12.6463 14.5191 12.5074C14.7969 12.2021 14.8643 11.8212 14.8643 11.4252C14.8643 11.2657 14.7887 11.2259 14.6346 11.2822C14.6003 11.2946 14.5673 11.3125 14.5356 11.3304C14.4229 11.3964 14.3074 11.4582 14.1974 11.5311C13.9402 11.7016 13.6735 11.8336 13.3586 11.8597C12.6725 11.9147 11.9794 11.4651 11.7526 10.8078C11.7251 10.7281 11.7031 10.647 11.6742 10.5686C11.5931 10.3486 11.516 10.3279 11.362 10.5053C11.2149 10.6758 11.0815 10.8573 10.9495 11.0402C10.7886 11.2644 10.5796 11.4225 10.3239 11.5229C9.90862 11.6851 9.47823 11.7167 9.0396 11.6645C8.65321 11.6177 8.28057 11.5077 7.91481 11.3812C7.5683 11.2602 7.24929 11.0993 7.00453 10.8161C6.96878 10.7735 6.9179 10.7363 6.86565 10.7157C6.7144 10.6538 6.58927 10.7487 6.60027 10.911C6.60302 10.9426 6.60714 10.9742 6.61539 11.0045C6.67452 11.2231 6.7474 11.4349 6.8629 11.6301C7.05403 11.9532 7.31529 12.22 7.56417 12.4964C7.61643 12.5528 7.66593 12.6133 7.71268 12.6765ZM6.83265 3.35923C6.27163 3.43486 5.71887 3.55999 5.17023 3.69887C4.73846 3.8075 4.3397 3.989 3.96569 4.22688C3.45692 4.55002 3.01553 4.95016 2.65115 5.4328C2.14651 6.10382 1.85225 6.85597 1.81375 7.69749C1.76699 8.69852 2.11488 9.56755 2.73915 10.3348C3.19704 10.8972 3.79656 11.2341 4.4992 11.3909C4.97909 11.4981 5.46173 11.5957 5.94437 11.6961C6.00075 11.7085 6.0585 11.714 6.11625 11.714C6.23451 11.7126 6.27713 11.6659 6.26338 11.5476C6.25101 11.4349 6.20701 11.3331 6.1245 11.2547C6.05713 11.1901 5.98425 11.1296 5.90725 11.0746C5.68174 10.9123 5.49748 10.713 5.37235 10.4655C5.0671 9.85906 4.87046 9.22379 4.87872 8.53352C4.89247 8.35614 4.90484 8.17876 4.92134 8.00138C4.92547 7.95462 4.93647 7.90787 4.95434 7.86387C4.98597 7.78412 5.0341 7.77725 5.09597 7.84187C5.11797 7.86387 5.13447 7.89137 5.15372 7.91612C5.29398 8.099 5.43148 8.28464 5.57586 8.46477C5.97738 8.97216 6.40776 9.4493 6.92203 9.84806C7.27679 10.1231 7.65905 10.3348 8.11419 10.3706C8.31082 10.3857 8.51158 10.3761 8.70821 10.3555C8.82509 10.3431 8.84571 10.2812 8.79759 10.1753C8.77696 10.1286 8.74671 10.0832 8.71509 10.0433C8.56246 9.85631 8.4057 9.67343 8.25582 9.48505C7.85431 8.98041 7.53255 8.43177 7.32354 7.81987C7.18879 7.42661 7.11179 7.0196 7.06916 6.60708C7.01966 6.13682 7.01278 5.6638 7.08703 5.19491C7.14204 4.8484 7.22591 4.50739 7.29192 4.16226C7.32492 3.98763 7.36204 3.81162 7.37304 3.63561C7.38267 3.47473 7.30292 3.39086 7.14479 3.36886C7.04166 3.35373 6.93441 3.34548 6.83265 3.35923ZM9.48648 2.41458C9.36411 2.45995 9.24035 2.50808 9.12897 2.57408C8.95022 2.67996 8.93372 2.77896 9.07397 2.92472C9.17022 3.0251 9.28023 3.11997 9.39986 3.19148C9.54699 3.28085 9.70512 3.35373 9.86462 3.41836C10.3101 3.59987 10.6965 3.85837 11.0004 4.23513C11.2933 4.59952 11.4872 5.01478 11.6247 5.45892C11.6632 5.58405 11.7031 5.70918 11.7567 5.82743C11.8419 6.01856 11.9588 6.05844 12.1527 5.97594C12.2792 5.92231 12.3686 5.83018 12.4346 5.7133C12.5363 5.5318 12.6752 5.3833 12.8443 5.26367C13.0506 5.11791 13.2775 5.01066 13.5112 4.91578C13.9774 4.7274 14.4435 4.53902 14.9399 4.44414C15.0169 4.42902 15.0925 4.40564 15.164 4.37401C15.274 4.32589 15.3098 4.25438 15.3002 4.13476C15.296 4.0935 15.2892 4.05088 15.2768 4.011C15.2094 3.78962 15.1255 3.57649 15.0045 3.37711C14.7611 2.97972 14.4243 2.74046 13.9444 2.72259C13.6694 2.71296 13.4026 2.75284 13.1386 2.82571C12.6463 2.96047 12.3067 3.25198 12.1719 3.75937C12.1499 3.84462 12.1101 3.92575 12.0688 4.00413C12.0179 4.10451 11.9299 4.14163 11.8186 4.12376C11.7031 4.10588 11.6288 4.0385 11.5999 3.92575C11.5862 3.87075 11.5793 3.81162 11.5779 3.75387C11.5669 3.41423 11.4404 3.1186 11.2259 2.86559C10.9372 2.52458 10.5796 2.30457 10.1424 2.2922C9.899 2.29357 9.68862 2.33895 9.48648 2.41458Z" fill="#E9AD77"/>
</svg>